<?xml version="1.0" encoding="UTF-8"?>
<svg xmlns="http://www.w3.org/2000/svg" xmlns:xlink="http://www.w3.org/1999/xlink" width="156pt" height="18pt" viewBox="0 0 156 18" version="1.1">
<g id="surface1">
<path style=" stroke:none;fill-rule:nonzero;fill:rgb(100%,100%,100%);fill-opacity:1;" d="M 5.988281 2.101562 L 5.226562 5.734375 L 6.597656 5.734375 L 6.40625 6.648438 L 5.039062 6.648438 L 3.589844 13.527344 C 3.515625 13.835938 3.515625 14.0625 3.515625 14.253906 C 3.515625 14.90625 3.820312 15.09375 4.464844 15.09375 C 5.34375 15.09375 6.179688 14.214844 6.523438 13.070312 L 7.433594 13.070312 C 6.140625 16.816406 3.894531 17.3125 2.640625 17.3125 C 1.269531 17.3125 0.203125 16.472656 0.203125 14.558594 C 0.203125 14.140625 0.28125 13.605469 0.394531 13.070312 L 1.765625 6.613281 L 1.003906 6.613281 L 1.191406 5.695312 L 1.953125 5.695312 L 2.640625 2.523438 Z M 5.988281 2.101562 "/>
<path style=" stroke:none;fill-rule:nonzero;fill:rgb(100%,100%,100%);fill-opacity:1;" d="M 11.203125 15.402344 C 12.992188 15.402344 14.097656 14.40625 15.238281 13.070312 L 16 13.070312 C 14.703125 15.171875 12.765625 17.3125 9.71875 17.3125 C 7.585938 17.3125 6.140625 16.242188 6.140625 13.679688 C 6.140625 11.042969 7.625 5.503906 12.308594 5.503906 C 14.324219 5.503906 14.820312 6.574219 14.820312 7.71875 C 14.820312 10.355469 12.308594 12.382812 9.566406 12.574219 C 9.527344 12.878906 9.527344 13.222656 9.527344 13.492188 C 9.566406 15.019531 10.097656 15.402344 11.203125 15.402344 Z M 12.535156 6.726562 C 11.355469 6.726562 10.25 9.171875 9.796875 11.464844 C 11.546875 11.351562 13.105469 9.59375 13.105469 7.679688 C 13.105469 7.070312 12.953125 6.726562 12.535156 6.726562 Z M 12.535156 6.726562 "/>
<path style=" stroke:none;fill-rule:nonzero;fill:rgb(100%,100%,100%);fill-opacity:1;" d="M 26.199219 5.695312 L 24.5625 13.492188 C 24.488281 13.796875 24.488281 14.027344 24.488281 14.214844 C 24.488281 14.867188 24.789062 15.210938 25.4375 15.210938 C 26.3125 15.210938 26.960938 14.214844 27.304688 13.070312 L 28.253906 13.070312 C 26.960938 16.816406 24.90625 17.3125 23.648438 17.3125 C 22.355469 17.3125 21.554688 16.585938 21.402344 15.210938 C 20.679688 16.28125 19.613281 17.3125 18.015625 17.3125 C 16.457031 17.3125 14.972656 16.355469 14.972656 13.605469 C 14.972656 10.507812 16.875 5.578125 20.832031 5.578125 C 22.125 5.578125 22.699219 6.078125 22.699219 6.765625 L 22.699219 6.917969 L 22.964844 5.695312 Z M 18.320312 13.300781 C 18.320312 15.058594 19.042969 15.09375 19.460938 15.09375 C 20.109375 15.09375 21.097656 14.40625 21.367188 13.070312 L 22.46875 7.871094 C 22.46875 7.605469 22.277344 6.992188 21.519531 6.992188 C 19.578125 7.03125 18.320312 11.160156 18.320312 13.300781 Z M 18.320312 13.300781 "/>
<path style=" stroke:none;fill-rule:nonzero;fill:rgb(100%,100%,100%);fill-opacity:1;" d="M 33.925781 7.644531 C 33.925781 7.070312 33.734375 6.6875 33.277344 6.6875 C 31.832031 6.6875 30.347656 10.890625 30.347656 13.414062 C 30.347656 14.980469 30.878906 15.324219 31.984375 15.324219 C 33.773438 15.324219 34.878906 14.332031 36.019531 12.992188 L 36.78125 12.992188 C 35.484375 15.09375 33.546875 17.234375 30.5 17.234375 C 28.367188 17.234375 26.921875 16.164062 26.921875 13.605469 C 26.921875 10.929688 28.445312 5.425781 33.050781 5.425781 C 35.066406 5.425781 35.601562 6.496094 35.601562 7.527344 C 35.601562 8.636719 35.066406 9.210938 34.382812 9.210938 C 34.117188 9.210938 33.847656 9.132812 33.582031 8.941406 C 33.8125 8.523438 33.925781 8.0625 33.925781 7.644531 Z M 33.925781 7.644531 "/>
<path style=" stroke:none;fill-rule:nonzero;fill:rgb(100%,100%,100%);fill-opacity:1;" d="M 41.765625 7.71875 C 40.890625 7.71875 40.167969 9.132812 40.015625 9.746094 L 38.453125 17.199219 L 35.179688 17.199219 L 38.492188 1.605469 L 41.878906 1.148438 L 40.664062 6.917969 C 41.613281 5.808594 42.640625 5.617188 43.328125 5.617188 C 44.773438 5.617188 45.875 6.382812 45.875 8.214844 C 45.875 10.089844 44.773438 12.839844 44.773438 14.140625 C 44.773438 14.714844 45 15.09375 45.6875 15.09375 C 46.675781 15.09375 47.09375 14.253906 47.589844 13.070312 L 48.539062 13.070312 C 47.246094 16.816406 45.496094 17.3125 44.277344 17.3125 C 42.300781 17.3125 41.574219 16.011719 41.574219 14.714844 C 41.574219 13.148438 42.601562 10.320312 42.601562 8.867188 C 42.601562 8.101562 42.335938 7.71875 41.765625 7.71875 Z M 41.765625 7.71875 "/>
<path style=" stroke:none;fill-rule:nonzero;fill:rgb(100%,100%,100%);fill-opacity:1;" d="M 52.308594 15.402344 C 54.097656 15.402344 55.203125 14.40625 56.34375 13.070312 L 57.105469 13.070312 C 55.808594 15.171875 53.871094 17.3125 50.824219 17.3125 C 48.691406 17.3125 47.246094 16.242188 47.246094 13.679688 C 47.246094 11.042969 48.730469 5.503906 53.414062 5.503906 C 55.429688 5.503906 55.925781 6.574219 55.925781 7.71875 C 55.925781 10.355469 53.414062 12.382812 50.671875 12.574219 C 50.632812 12.878906 50.632812 13.222656 50.632812 13.492188 C 50.632812 15.019531 51.207031 15.402344 52.308594 15.402344 Z M 53.601562 6.726562 C 52.421875 6.726562 51.320312 9.171875 50.863281 11.464844 C 52.613281 11.351562 54.175781 9.59375 54.175781 7.679688 C 54.175781 7.070312 54.058594 6.726562 53.601562 6.726562 Z M 53.601562 6.726562 "/>
<path style=" stroke:none;fill-rule:nonzero;fill:rgb(100%,100%,100%);fill-opacity:1;" d="M 61.175781 5.695312 L 60.871094 7.109375 C 61.671875 6.421875 62.546875 5.695312 63.652344 5.695312 C 64.679688 5.695312 65.210938 6.535156 65.210938 7.414062 C 65.210938 8.214844 64.679688 9.09375 63.574219 9.09375 C 62.28125 9.09375 62.929688 7.566406 62.242188 7.566406 C 61.558594 7.566406 61.140625 7.910156 60.566406 8.445312 L 58.742188 17.160156 L 55.46875 17.160156 L 57.902344 5.695312 Z M 61.175781 5.695312 "/>
<path style=" stroke:none;fill-rule:nonzero;fill:rgb(100%,100%,100%);fill-opacity:1;" d="M 71.605469 5.007812 C 71.871094 10.929688 72.101562 11.847656 72.101562 13.335938 C 72.101562 16.320312 69.398438 17.3125 67.535156 17.3125 C 65.210938 17.3125 64.183594 15.785156 64.183594 14.371094 C 64.183594 13.300781 64.792969 12.535156 65.402344 12.230469 C 66.695312 9.972656 67.496094 7.679688 68.21875 5.425781 Z M 66.011719 14.179688 C 65.78125 14.179688 65.515625 14.101562 65.402344 13.871094 C 65.402344 14.941406 65.78125 15.476562 66.808594 15.476562 C 67.800781 15.476562 68.789062 14.941406 68.789062 13.335938 C 68.789062 12.152344 68.597656 11.425781 68.371094 7.910156 C 67.914062 9.402344 67.265625 10.777344 66.503906 12.230469 C 66.808594 12.382812 67.039062 12.648438 67.039062 13.03125 C 67.039062 13.605469 66.621094 14.179688 66.011719 14.179688 Z M 66.011719 14.179688 "/>
<path style=" stroke:none;fill-rule:nonzero;fill:rgb(100%,100%,100%);fill-opacity:1;" d="M 79.75 12.496094 L 77.773438 12.496094 L 77.773438 15.667969 C 77.773438 15.820312 77.773438 16.011719 77.734375 16.164062 C 77.621094 16.816406 77.316406 17.3125 76.78125 17.65625 C 76.25 18 75.679688 18.078125 75.03125 17.960938 C 74.5 17.847656 74.042969 17.617188 73.699219 17.199219 C 73.355469 16.777344 73.203125 16.28125 73.203125 15.628906 L 73.242188 2.75 C 73.242188 2.597656 73.242188 2.40625 73.28125 2.253906 C 73.507812 1.03125 74.269531 0.421875 75.601562 0.421875 L 79.636719 0.421875 C 80.09375 0.421875 80.550781 0.457031 80.96875 0.535156 C 82.492188 0.800781 83.710938 1.492188 84.621094 2.558594 C 85.535156 3.628906 86.03125 4.929688 86.03125 6.496094 C 86.03125 6.917969 85.992188 7.300781 85.917969 7.644531 C 85.648438 9.132812 84.925781 10.320312 83.785156 11.199219 C 82.644531 12.039062 81.3125 12.496094 79.75 12.496094 Z M 79.558594 4.585938 L 77.808594 4.585938 L 77.808594 8.292969 L 79.558594 8.292969 C 80.550781 8.292969 81.121094 7.835938 81.3125 6.878906 C 81.425781 6.34375 81.347656 5.847656 81.121094 5.464844 C 80.855469 5.007812 80.472656 4.738281 79.941406 4.664062 C 79.828125 4.585938 79.710938 4.585938 79.558594 4.585938 Z M 79.558594 4.585938 "/>
<path style=" stroke:none;fill-rule:nonzero;fill:rgb(100%,100%,100%);fill-opacity:1;" d="M 90.75 11.886719 C 90.863281 12.6875 90.941406 13.871094 90.980469 15.515625 C 91.015625 16.242188 90.828125 16.816406 90.371094 17.234375 C 89.914062 17.65625 89.378906 17.886719 88.695312 17.886719 C 88.046875 17.886719 87.476562 17.695312 87.058594 17.234375 C 86.601562 16.816406 86.410156 16.242188 86.410156 15.554688 L 86.296875 2.675781 C 86.296875 1.949219 86.488281 1.375 86.90625 0.957031 C 87.324219 0.535156 87.894531 0.304688 88.582031 0.304688 L 92.578125 0.265625 C 94.402344 0.265625 95.851562 0.648438 96.917969 1.453125 C 98.058594 2.292969 98.707031 3.554688 98.855469 5.234375 C 98.894531 5.464844 98.894531 5.734375 98.894531 6 C 98.894531 7.183594 98.554688 8.214844 97.828125 9.058594 C 97.183594 9.820312 96.308594 10.394531 95.203125 10.699219 L 98.4375 14.101562 C 98.855469 14.523438 99.046875 15.019531 99.046875 15.476562 C 99.046875 16.089844 98.855469 16.625 98.4375 17.121094 C 98.019531 17.617188 97.449219 17.847656 96.800781 17.847656 C 96.078125 17.847656 95.46875 17.578125 95.011719 17.042969 Z M 92.652344 4.585938 L 90.863281 4.585938 L 90.902344 7.492188 L 92.691406 7.492188 C 93.71875 7.492188 94.253906 6.992188 94.214844 6 C 94.175781 5.042969 93.679688 4.546875 92.652344 4.585938 Z M 92.652344 4.585938 "/>
<path style=" stroke:none;fill-rule:nonzero;fill:rgb(100%,100%,100%);fill-opacity:1;" d="M 107.078125 18 C 104.910156 17.886719 103.082031 17.121094 101.597656 15.628906 C 100.191406 14.214844 99.351562 12.382812 99.125 10.242188 C 99.046875 9.707031 99.046875 9.171875 99.085938 8.597656 C 99.199219 6.304688 99.921875 4.355469 101.292969 2.789062 C 102.664062 1.183594 104.414062 0.304688 106.507812 0.078125 C 106.964844 0.0390625 107.460938 0 107.914062 0.0390625 C 110.085938 0.152344 111.914062 0.917969 113.359375 2.40625 C 114.804688 3.898438 115.640625 5.695312 115.871094 7.835938 C 115.945312 8.371094 115.945312 8.90625 115.910156 9.441406 C 115.792969 11.695312 115.070312 13.644531 113.699219 15.25 C 112.332031 16.851562 110.617188 17.769531 108.488281 18 C 108.03125 18 107.574219 18.039062 107.078125 18 Z M 107.761719 4.320312 C 107.574219 4.28125 107.34375 4.28125 107.15625 4.320312 C 106.164062 4.433594 105.367188 4.890625 104.792969 5.734375 C 104.222656 6.574219 103.882812 7.605469 103.804688 8.828125 C 103.765625 9.210938 103.804688 9.59375 103.84375 9.972656 C 103.957031 11.042969 104.300781 11.921875 104.910156 12.613281 C 105.519531 13.300781 106.316406 13.644531 107.308594 13.679688 C 107.535156 13.71875 107.726562 13.71875 107.914062 13.679688 C 108.90625 13.566406 109.703125 13.109375 110.3125 12.230469 C 110.882812 11.425781 111.1875 10.394531 111.226562 9.132812 C 111.265625 8.75 111.226562 8.40625 111.1875 8.027344 C 111.074219 6.957031 110.730469 6.078125 110.160156 5.386719 C 109.550781 4.738281 108.714844 4.355469 107.761719 4.320312 Z M 107.761719 4.320312 "/>
<path style=" stroke:none;fill-rule:nonzero;fill:rgb(100%,100%,100%);fill-opacity:1;" d="M 121.425781 2.101562 L 120.667969 5.734375 L 122.035156 5.734375 L 121.847656 6.648438 L 120.476562 6.648438 L 119.03125 13.527344 C 118.953125 13.835938 118.953125 14.0625 118.953125 14.253906 C 118.953125 14.90625 119.257812 15.09375 119.90625 15.09375 C 120.78125 15.09375 121.617188 14.214844 121.960938 13.070312 L 122.910156 13.070312 C 121.617188 16.816406 119.335938 17.3125 118.117188 17.3125 C 116.746094 17.3125 115.679688 16.472656 115.679688 14.558594 C 115.679688 14.140625 115.757812 13.605469 115.871094 13.070312 L 117.242188 6.613281 L 116.480469 6.613281 L 116.667969 5.695312 L 117.429688 5.695312 L 118.117188 2.523438 Z M 121.425781 2.101562 "/>
<path style=" stroke:none;fill-rule:nonzero;fill:rgb(100%,100%,100%);fill-opacity:1;" d="M 131.324219 9.171875 C 131.398438 9.210938 131.511719 9.210938 131.589844 9.210938 C 132.65625 9.210938 134.140625 8.523438 135.089844 7.835938 L 135.28125 8.445312 C 134.40625 9.402344 132.921875 10.089844 131.246094 10.355469 C 130.867188 14.597656 128.582031 17.273438 125.804688 17.273438 C 123.671875 17.273438 122.152344 16.28125 122.152344 13.644531 C 122.152344 11.007812 123.710938 5.503906 128.390625 5.503906 C 130.371094 5.503906 131.324219 6.765625 131.324219 9.171875 Z M 129.382812 10.433594 C 128.886719 10.320312 128.773438 9.9375 128.773438 9.476562 C 128.773438 8.828125 129.078125 8.40625 129.496094 8.253906 C 129.457031 7.300781 129.230469 6.917969 128.621094 6.917969 C 126.984375 6.917969 125.574219 11.121094 125.574219 13.375 C 125.574219 14.90625 125.878906 15.25 126.757812 15.25 C 127.820312 15.210938 129 13.148438 129.382812 10.433594 Z M 129.382812 10.433594 "/>
<path style=" stroke:none;fill-rule:nonzero;fill:rgb(100%,100%,100%);fill-opacity:1;" d="M 141.371094 9.171875 C 141.449219 9.210938 141.5625 9.210938 141.636719 9.210938 C 142.703125 9.210938 144.1875 8.523438 145.140625 7.835938 L 145.328125 8.445312 C 144.453125 9.402344 142.96875 10.089844 141.296875 10.355469 C 140.914062 14.597656 138.632812 17.273438 135.851562 17.273438 C 133.722656 17.273438 132.199219 16.28125 132.199219 13.644531 C 132.199219 11.007812 133.757812 5.503906 138.441406 5.503906 C 140.382812 5.503906 141.371094 6.765625 141.371094 9.171875 Z M 139.390625 10.433594 C 138.898438 10.320312 138.78125 9.9375 138.78125 9.476562 C 138.78125 8.828125 139.085938 8.40625 139.507812 8.253906 C 139.46875 7.300781 139.238281 6.917969 138.632812 6.917969 C 136.996094 6.917969 135.585938 11.121094 135.585938 13.375 C 135.585938 14.90625 135.890625 15.25 136.765625 15.25 C 137.871094 15.210938 139.011719 13.148438 139.390625 10.433594 Z M 139.390625 10.433594 "/>
<path style=" stroke:none;fill-rule:nonzero;fill:rgb(100%,100%,100%);fill-opacity:1;" d="M 148.335938 1.109375 L 145.710938 13.492188 C 145.632812 13.796875 145.632812 14.027344 145.632812 14.214844 C 145.632812 14.867188 145.9375 15.058594 146.585938 15.058594 C 147.460938 15.058594 148.296875 14.179688 148.640625 13.03125 L 149.59375 13.03125 C 148.296875 16.777344 146.015625 17.273438 144.796875 17.273438 C 143.425781 17.273438 142.359375 16.433594 142.359375 14.523438 C 142.359375 14.101562 142.4375 13.566406 142.550781 13.03125 L 144.988281 1.527344 Z M 148.335938 1.109375 "/>
<path style=" stroke:none;fill-rule:nonzero;fill:rgb(100%,100%,100%);fill-opacity:1;" d="M 155.300781 5.007812 C 155.566406 10.929688 155.796875 11.847656 155.796875 13.335938 C 155.796875 16.320312 153.09375 17.3125 151.230469 17.3125 C 148.90625 17.3125 147.878906 15.785156 147.878906 14.371094 C 147.878906 13.300781 148.488281 12.535156 149.097656 12.230469 C 150.390625 9.972656 151.191406 7.679688 151.914062 5.425781 Z M 149.707031 14.179688 C 149.476562 14.179688 149.210938 14.101562 149.097656 13.871094 C 149.097656 14.941406 149.476562 15.476562 150.507812 15.476562 C 151.496094 15.476562 152.484375 14.941406 152.484375 13.335938 C 152.484375 12.152344 152.292969 11.425781 152.066406 7.910156 C 151.609375 9.402344 150.960938 10.777344 150.203125 12.230469 C 150.507812 12.382812 150.734375 12.648438 150.734375 13.03125 C 150.734375 13.605469 150.316406 14.179688 149.707031 14.179688 Z M 149.707031 14.179688 "/>
</g>
</svg>
