<?xml version="1.0" encoding="utf-8"?>
<!-- Generator: Adobe Illustrator 22.1.0, SVG Export Plug-In . SVG Version: 6.00 Build 0)  -->
<svg version="1.1" id="Camada_1" xmlns="http://www.w3.org/2000/svg" xmlns:xlink="http://www.w3.org/1999/xlink" x="0px" y="0px"
	 viewBox="0 0 408.8 47.1" style="enable-background:new 0 0 408.8 47.1;" xml:space="preserve">
<style type="text/css">
	.st0{fill:#FFFFFF;}
</style>
<g id="Logo">
	<path class="st0" d="M15.2,5.5l-2,9.5h3.6l-0.5,2.4h-3.6l-3.8,18c-0.2,0.8-0.2,1.4-0.2,1.9c0,1.7,0.8,2.2,2.5,2.2
		c2.3,0,4.5-2.3,5.4-5.3H19C15.6,44,9.7,45.3,6.4,45.3c-3.6,0-6.4-2.2-6.4-7.2c0-1.1,0.2-2.5,0.5-3.9l3.6-16.9h-2l0.5-2.4h2l1.8-8.3
		L15.2,5.5z"/>
	<path class="st0" d="M28.9,40.3c4.7,0,7.6-2.6,10.6-6.1h2c-3.4,5.5-8.5,11.1-16.5,11.1c-5.6,0-9.4-2.8-9.4-9.5
		c0-6.9,3.9-21.4,16.2-21.4c5.3,0,6.6,2.8,6.6,5.8c0,6.9-6.6,12.2-13.8,12.7c-0.1,0.8-0.1,1.7-0.1,2.4C24.6,39.3,26,40.3,28.9,40.3z
		 M32.4,17.6c-3.1,0-6,6.4-7.2,12.4c4.6-0.3,8.7-4.9,8.7-9.9C33.9,18.5,33.5,17.6,32.4,17.6z"/>
	<path class="st0" d="M68.3,14.9L64,35.3c-0.2,0.8-0.2,1.4-0.2,1.9c0,1.7,0.8,2.6,2.5,2.6c2.3,0,4-2.6,4.9-5.6h2.5
		c-3.4,9.8-8.8,11.1-12.1,11.1c-3.4,0-5.5-1.9-5.9-5.5c-1.9,2.8-4.7,5.5-8.9,5.5c-4.1,0-8-2.5-8-9.7c0-8.1,5-21,15.4-21
		c3.4,0,4.9,1.3,4.9,3.1v0.4l0.7-3.2H68.3z M47.6,34.8c0,4.6,1.9,4.7,3,4.7c1.7,0,4.3-1.8,5-5.3l2.9-13.6c0-0.7-0.5-2.3-2.5-2.3
		C50.9,18.4,47.6,29.2,47.6,34.8z"/>
	<path class="st0" d="M88.6,20c0-1.5-0.5-2.5-1.7-2.5c-3.8,0-7.7,11-7.7,17.6c0,4.1,1.4,5,4.3,5c4.7,0,7.6-2.6,10.6-6.1h2
		c-3.4,5.5-8.5,11.1-16.5,11.1c-5.6,0-9.4-2.8-9.4-9.5c0-7,4-21.4,16.1-21.4c5.3,0,6.7,2.8,6.7,5.5c0,2.9-1.4,4.4-3.2,4.4
		c-0.7,0-1.4-0.2-2.1-0.7C88.3,22.3,88.6,21.1,88.6,20z"/>
	<path class="st0" d="M109.2,20.2c-2.3,0-4.2,3.7-4.6,5.3l-4.1,19.5h-8.6l8.7-40.8l8.9-1.2l-3.2,15.1c2.5-2.9,5.2-3.4,7-3.4
		c3.8,0,6.7,2,6.7,6.8c0,4.9-2.9,12.1-2.9,15.5c0,1.5,0.6,2.5,2.4,2.5c2.6,0,3.7-2.2,5-5.3h2.5c-3.4,9.8-8,11.1-11.2,11.1
		c-5.2,0-7.1-3.4-7.1-6.8c0-4.1,2.7-11.5,2.7-15.3C111.4,21.2,110.7,20.2,109.2,20.2z"/>
	<path class="st0" d="M136.9,40.3c4.7,0,7.6-2.6,10.6-6.1h2c-3.4,5.5-8.5,11.1-16.5,11.1c-5.6,0-9.4-2.8-9.4-9.5
		c0-6.9,3.9-21.4,16.2-21.4c5.3,0,6.6,2.8,6.6,5.8c0,6.9-6.6,12.2-13.8,12.7c-0.1,0.8-0.1,1.7-0.1,2.4
		C132.5,39.3,134,40.3,136.9,40.3z M140.3,17.6c-3.1,0-6,6.4-7.2,12.4c4.6-0.3,8.7-4.9,8.7-9.9C141.8,18.5,141.5,17.6,140.3,17.6z"
		/>
	<path class="st0" d="M160.2,14.9l-0.8,3.7c2.1-1.8,4.4-3.7,7.3-3.7c2.7,0,4.1,2.2,4.1,4.5c0,2.1-1.4,4.4-4.3,4.4
		c-3.4,0-1.7-4-3.5-4c-1.8,0-2.9,0.9-4.4,2.3l-4.8,22.8h-8.6l6.4-30H160.2z"/>
	<path class="st0" d="M187.6,13.1c0.7,15.5,1.3,17.9,1.3,21.8c0,7.8-7.1,10.4-12,10.4c-6.1,0-8.8-4-8.8-7.7c0-2.8,1.6-4.8,3.2-5.6
		c3.4-5.9,5.5-11.9,7.4-17.8L187.6,13.1z M172.9,37.1c-0.6,0-1.3-0.2-1.6-0.8c0,2.8,1,4.2,3.7,4.2c2.6,0,5.2-1.4,5.2-5.6
		c0-3.1-0.5-5-1.1-14.2c-1.2,3.9-2.9,7.5-4.9,11.3c0.8,0.4,1.4,1.1,1.4,2.1C175.6,35.6,174.5,37.1,172.9,37.1z"/>
	<path class="st0" d="M209,32.7l-5.2,0l0,8.3c0,0.4,0,0.9-0.1,1.3c-0.3,1.7-1.1,3-2.5,3.9c-1.4,0.9-2.9,1.1-4.6,0.8
		c-1.4-0.3-2.6-0.9-3.5-2c-0.9-1.1-1.3-2.4-1.3-4.1l0.1-33.7c0-0.4,0-0.9,0.1-1.3c0.6-3.2,2.6-4.8,6.1-4.8l10.6,0
		c1.2,0,2.4,0.1,3.5,0.3c4,0.7,7.2,2.5,9.6,5.3c2.4,2.8,3.7,6.2,3.7,10.3c0,1.1-0.1,2.1-0.3,3c-0.7,3.9-2.6,7-5.6,9.3
		C216.6,31.5,213.1,32.7,209,32.7z M208.5,12l-4.6,0l0,9.7l4.6,0c2.6,0,4.1-1.2,4.6-3.7c0.3-1.4,0.1-2.7-0.5-3.7
		c-0.7-1.2-1.7-1.9-3.1-2.1C209.2,12,208.9,12,208.5,12z"/>
	<path class="st0" d="M237.9,31.1c0.3,2.1,0.5,5.2,0.6,9.5c0.1,1.9-0.4,3.4-1.6,4.5c-1.2,1.1-2.6,1.7-4.4,1.7
		c-1.7,0-3.2-0.5-4.3-1.7c-1.2-1.1-1.7-2.6-1.7-4.4L226.2,7c0-1.9,0.5-3.4,1.6-4.5c1.1-1.1,2.6-1.7,4.4-1.7l10.5-0.1
		c4.8,0,8.6,1,11.4,3.1c3,2.2,4.7,5.5,5.1,9.9c0.1,0.6,0.1,1.3,0.1,2c0,3.1-0.9,5.8-2.8,8c-1.7,2-4,3.5-6.9,4.3l8.5,8.9
		c1.1,1.1,1.6,2.4,1.6,3.6c0,1.6-0.5,3-1.6,4.3c-1.1,1.3-2.6,1.9-4.3,1.9c-1.9,0-3.5-0.7-4.7-2.1L237.9,31.1z M242.9,12l-4.7,0
		l0.1,7.6l4.7,0c2.7,0,4.1-1.3,4-3.9C246.9,13.2,245.6,11.9,242.9,12z"/>
	<path class="st0" d="M280.8,47.1c-5.7-0.3-10.5-2.3-14.4-6.2c-3.7-3.7-5.9-8.5-6.5-14.1c-0.2-1.4-0.2-2.8-0.1-4.3
		c0.3-6,2.2-11.1,5.8-15.2c3.6-4.2,8.2-6.5,13.7-7.1c1.2-0.1,2.5-0.2,3.7-0.1c5.7,0.3,10.5,2.3,14.3,6.2c3.8,3.9,6,8.6,6.6,14.2
		c0.2,1.4,0.2,2.8,0.1,4.2c-0.3,5.9-2.2,11-5.8,15.2c-3.6,4.2-8.1,6.6-13.7,7.2C283.3,47.1,282.1,47.2,280.8,47.1z M282.6,11.3
		c-0.5-0.1-1.1-0.1-1.6,0c-2.6,0.3-4.7,1.5-6.2,3.7c-1.5,2.2-2.4,4.9-2.6,8.1c-0.1,1,0,2,0.1,3c0.3,2.8,1.2,5.1,2.8,6.9
		c1.6,1.8,3.7,2.7,6.3,2.8c0.6,0.1,1.1,0.1,1.6,0c2.6-0.3,4.7-1.5,6.3-3.8c1.5-2.1,2.3-4.8,2.4-8.1c0.1-1,0-1.9-0.1-2.9
		c-0.3-2.8-1.2-5.1-2.7-6.9C287.3,12.4,285.1,11.4,282.6,11.3z"/>
	<path class="st0" d="M318.5,5.5l-2,9.5h3.6l-0.5,2.4H316l-3.8,18c-0.2,0.8-0.2,1.4-0.2,1.9c0,1.7,0.8,2.2,2.5,2.2
		c2.3,0,4.5-2.3,5.4-5.3h2.5c-3.4,9.8-9.4,11.1-12.6,11.1c-3.6,0-6.4-2.2-6.4-7.2c0-1.1,0.2-2.5,0.5-3.9l3.6-16.9h-2l0.5-2.4h2
		l1.8-8.3L318.5,5.5z"/>
	<path class="st0" d="M344.5,24c0.2,0.1,0.5,0.1,0.7,0.1c2.8,0,6.7-1.8,9.2-3.6l0.5,1.6c-2.3,2.5-6.2,4.3-10.6,5
		c-1,11.1-7,18.1-14.3,18.1c-5.6,0-9.6-2.6-9.6-9.5c0-6.9,4.1-21.3,16.4-21.3C342,14.4,344.5,17.7,344.5,24z M339.4,27.3
		c-1.3-0.3-1.6-1.3-1.6-2.5c0-1.7,0.8-2.8,1.9-3.2c-0.1-2.5-0.7-3.5-2.3-3.5c-4.3,0-8,11-8,16.9c0,4,0.8,4.9,3.1,4.9
		C335.3,39.8,338.4,34.4,339.4,27.3z"/>
	<path class="st0" d="M370.9,24c0.2,0.1,0.5,0.1,0.7,0.1c2.8,0,6.7-1.8,9.2-3.6l0.5,1.6c-2.3,2.5-6.2,4.3-10.6,5
		c-1,11.1-7,18.1-14.3,18.1c-5.6,0-9.6-2.6-9.6-9.5c0-6.9,4.1-21.3,16.4-21.3C368.3,14.4,370.9,17.7,370.9,24z M365.7,27.3
		c-1.3-0.3-1.6-1.3-1.6-2.5c0-1.7,0.8-2.8,1.9-3.2c-0.1-2.5-0.7-3.5-2.3-3.5c-4.3,0-8,11-8,16.9c0,4,0.8,4.9,3.1,4.9
		C361.7,39.8,364.7,34.4,365.7,27.3z"/>
	<path class="st0" d="M389.2,2.9l-6.9,32.4c-0.2,0.8-0.2,1.4-0.2,1.9c0,1.7,0.8,2.2,2.5,2.2c2.3,0,4.5-2.3,5.4-5.3h2.5
		c-3.4,9.8-9.4,11.1-12.6,11.1c-3.6,0-6.4-2.2-6.4-7.2c0-1.1,0.2-2.5,0.5-3.9l6.4-30.1L389.2,2.9z"/>
	<path class="st0" d="M407.5,13.1c0.7,15.5,1.3,17.9,1.3,21.8c0,7.8-7.1,10.4-12,10.4c-6.1,0-8.8-4-8.8-7.7c0-2.8,1.6-4.8,3.2-5.6
		c3.4-5.9,5.5-11.9,7.4-17.8L407.5,13.1z M392.8,37.1c-0.6,0-1.3-0.2-1.6-0.8c0,2.8,1,4.2,3.7,4.2c2.6,0,5.2-1.4,5.2-5.6
		c0-3.1-0.5-5-1.1-14.2c-1.2,3.9-2.9,7.5-4.9,11.3c0.8,0.4,1.4,1.1,1.4,2.1C395.5,35.6,394.4,37.1,392.8,37.1z"/>
</g>
</svg>
